<?xml version="1.0" standalone="no"?><!DOCTYPE svg PUBLIC "-//W3C//DTD SVG 1.1//EN" "http://www.w3.org/Graphics/SVG/1.1/DTD/svg11.dtd"><svg t="1750578684703" class="icon" viewBox="0 0 1024 1024" version="1.1" xmlns="http://www.w3.org/2000/svg" p-id="1721" xmlns:xlink="http://www.w3.org/1999/xlink" width="200" height="200"><path d="M477.866667 544.597333a382.72 382.72 0 0 1-135.850667-38.1952l-55.6544 12.970667a246.1696 246.1696 0 0 1-169.557333-21.4016c-44.373333-23.125333-61.44-77.499733-38.058667-121.4464 0.785067-1.4848 1.621333-2.952533 2.491733-4.4032C190.242133 192.3072 333.824 102.4 512 102.4c178.176 0 321.757867 89.9072 430.762667 269.7216 25.821867 42.581333 11.8784 97.826133-31.112534 123.392-1.450667 0.853333-2.935467 1.6896-4.437333 2.4576a246.1696 246.1696 0 0 1-169.557333 21.4016l-55.671467-12.970667A382.72 382.72 0 0 1 546.133333 544.597333V870.4h34.133334v-34.133333a17.066667 17.066667 0 0 1-17.066667-17.066667v-34.133333a17.066667 17.066667 0 0 1 17.066667-17.066667h9.096533l21.0944-158.1056A34.133333 34.133333 0 0 1 644.266667 580.266667h247.432533a34.133333 34.133333 0 0 1 33.826133 29.627733L946.6368 768H955.733333a17.066667 17.066667 0 0 1 17.066667 17.066667v34.133333a17.066667 17.066667 0 0 1-17.066667 17.066667v34.133333h17.066667a34.133333 34.133333 0 1 1 0 68.266667H51.2a34.133333 34.133333 0 1 1 0-68.266667h17.066667v-34.133333a17.066667 17.066667 0 0 1-17.066667-17.066667v-34.133333a17.066667 17.066667 0 0 1 17.066667-17.066667h9.096533l21.0944-158.1056A34.133333 34.133333 0 0 1 132.266667 580.266667h247.432533a34.133333 34.133333 0 0 1 33.826133 29.627733L434.6368 768H443.733333a17.066667 17.066667 0 0 1 17.066667 17.066667v34.133333a17.066667 17.066667 0 0 1-17.066667 17.066667v34.133333h34.133334V544.597333zM648.533333 870.4h238.933334v-34.133333H648.533333v34.133333z m-273.066666 0v-34.133333H136.533333v34.133333h238.933334zM148.514133 750.933333l-2.269866 17.066667H365.738667l-2.269867-17.066667H148.514133z m9.096534-68.266666h196.778666l-4.5568-34.133334H162.167467l-4.5568 34.133334z m502.903466 68.266666l-2.269866 17.066667H877.738667l-2.269867-17.066667H660.514133z m9.096534-68.266666h196.778666l-4.5568-34.133334H674.167467l-4.5568 34.133334zM512 170.666667c-153.002667 0-275.182933 76.509867-372.394667 236.8512l-0.580266 1.041066c-5.5296 10.3936-1.501867 23.2448 9.3184 28.8768a177.902933 177.902933 0 0 0 122.5216 15.445334l79.5136-18.5344 21.930666 10.871466a315.153067 315.153067 0 0 0 279.381334 0l21.947733-10.871466 79.496533 18.5344a177.902933 177.902933 0 0 0 123.630934-16.059734 21.162667 21.162667 0 0 0 7.6288-29.303466C787.2 247.176533 665.002667 170.666667 512 170.666667z" fill="#222222" p-id="1722"></path><path d="M526.882133 196.4544l100.4544 182.203733c8.942933 16.213333 2.8672 36.488533-13.568 45.312a34.167467 34.167467 0 0 1-6.877866 2.7648l-27.118934 7.645867a250.0608 250.0608 0 0 1-135.543466 0l-27.101867-7.645867a33.348267 33.348267 0 0 1-20.48-48.0768l100.471467-182.203733a17.066667 17.066667 0 0 1 29.764266 0z" fill="#FFDF32" p-id="1723"></path></svg>