<?xml version="1.0" standalone="no"?><!DOCTYPE svg PUBLIC "-//W3C//DTD SVG 1.1//EN" "http://www.w3.org/Graphics/SVG/1.1/DTD/svg11.dtd"><svg t="1750580882603" class="icon" viewBox="0 0 1024 1024" version="1.1" xmlns="http://www.w3.org/2000/svg" p-id="5314" xmlns:xlink="http://www.w3.org/1999/xlink" width="200" height="200"><path d="M240.6 894.3c-95.9 0-173.9-78-173.9-173.9s78-173.9 173.9-173.9 173.9 78 173.9 173.9-78 173.9-173.9 173.9z m0-258c-46.4 0-84.2 37.8-84.2 84.2 0 46.4 37.8 84.2 84.2 84.2 46.4 0 84.2-37.8 84.2-84.2-0.1-46.5-37.8-84.2-84.2-84.2zM790.3 894.3c-95.9 0-173.9-78-173.9-173.9s78-173.9 173.9-173.9 173.9 78 173.9 173.9-78 173.9-173.9 173.9z m0-258c-46.4 0-84.2 37.8-84.2 84.2 0 46.4 37.8 84.2 84.2 84.2 46.4 0 84.2-37.8 84.2-84.2-0.1-46.5-37.8-84.2-84.2-84.2zM603.3 419.7c-78.3 0-142-63.7-142-142s63.7-142 142-142 142 63.7 142 142-63.7 142-142 142z m0-194.3c-28.8 0-52.2 23.4-52.2 52.2 0 28.8 23.4 52.2 52.2 52.2 28.8 0 52.2-23.4 52.2-52.2 0-28.7-23.4-52.2-52.2-52.2z" fill="#333333" p-id="5315"></path><path d="M501.8 765.3c-24.8 0-44.9-20.1-44.9-44.9 0-84.2-49.5-161.4-126-196.6-39.4-18.1-59.7-62.6-47.2-103.4 8.6-28.2 27.7-70 69.5-108.7 77.6-71.8 150.5-65.2 158.5-64.2 24.6 3 42.1 25.4 39 50-3 24.3-24.8 41.5-49.1 39.1-2.9-0.2-41.6-1.6-87.4 40.9-25.5 23.6-37.7 48.2-43.6 65.8 107.1 50.3 176.1 158.8 176.1 277.2-0.1 24.7-20.2 44.8-44.9 44.8zM735.8 648.4c-5.7 0-11.4-1.1-17-3.4-145.7-59.7-157.3-209.6-143-280.6 4.9-24.3 28.5-40 52.8-35.2 24.2 4.9 39.9 28.4 35.2 52.6-1 5.4-24.1 133.7 89 180 22.9 9.4 33.9 35.6 24.5 58.5-7 17.6-23.8 28.1-41.5 28.1z" fill="#333333" p-id="5316"></path></svg>